<?xml version="1.0" standalone="no"?>
<!DOCTYPE svg PUBLIC "-//W3C//DTD SVG 20010904//EN"
 "http://www.w3.org/TR/2001/REC-SVG-20010904/DTD/svg10.dtd">
<svg version="1.0" xmlns="http://www.w3.org/2000/svg"
 width="32.000000pt" height="32.000000pt" viewBox="0 0 32.000000 32.000000"
 preserveAspectRatio="xMidYMid meet">

<g transform="translate(0.000000,32.000000) scale(0.100000,-0.100000)"
fill="#000000" stroke="none">
<path d="M60 160 l0 -120 25 0 c23 0 25 4 25 45 0 43 1 45 29 45 23 0 32 -8
52 -45 20 -37 29 -45 51 -45 34 0 34 2 6 52 -20 36 -21 41 -7 51 26 19 40 55
33 82 -11 43 -40 55 -131 55 l-83 0 0 -120z m144 74 c21 -8 21 -50 0 -58 -9
-3 -33 -6 -55 -6 -38 0 -39 1 -39 35 0 34 1 35 39 35 22 0 46 -3 55 -6z"/>
</g>
</svg>
